<?xml version="1.0" encoding="UTF-8" standalone="no"?>
<!-- Created with Inkscape (http://www.inkscape.org/) -->

<svg
   width="19"
   height="19"
   viewBox="0 0 19 19"
   version="1.1"
   id="svg1"
   xml:space="preserve"
   xmlns="http://www.w3.org/2000/svg"
   xmlns:svg="http://www.w3.org/2000/svg"><defs
     id="defs1" /><g
     id="layer1"
     transform="translate(3670.7768,389.33688)"><g
       style="fill:none"
       id="g11"
       transform="translate(-3670.7768,-389.33686)"><path
         d="M 0.531144,0.531144 C 0.871339,0.191053 1.33268,0 1.81371,0 2.29475,0 2.75609,0.191053 3.09629,0.531144 L 9.51095,6.94581 15.9256,0.531144 c 0.3422,-0.330453 0.8004,-0.5133042 1.2761,-0.5091709 0.4756,0.0041333 0.9306,0.1949209 1.267,0.5312699 0.3363,0.336349 0.5271,0.791347 0.5312,1.266997 0.0042,0.47566 -0.1787,0.9339 -0.5091,1.27605 l -6.4147,6.41466 6.4147,6.41465 c 0.3304,0.3422 0.5133,0.8004 0.5091,1.2761 -0.0041,0.4756 -0.1949,0.9306 -0.5312,1.267 -0.3364,0.3363 -0.7914,0.5271 -1.267,0.5312 -0.4757,0.0042 -0.9339,-0.1787 -1.2761,-0.5091 L 9.51095,12.0761 3.09629,18.4908 C 2.75414,18.8212 2.2959,19.0041 1.82024,18.9999 1.34459,18.9958 0.889592,18.805 0.553243,18.4687 0.216894,18.1323 0.0261064,17.6773 0.0219731,17.2017 0.0178398,16.726 0.200691,16.2678 0.531144,15.9256 L 6.94581,9.51095 0.531144,3.09629 C 0.191053,2.75609 0,2.29475 0,1.81371 0,1.33268 0.191053,0.871339 0.531144,0.531144 Z"
         fill="#01ec70"
         id="path1-88" /></g></g></svg>
