<?xml version="1.0" encoding="UTF-8" standalone="no"?>
<!-- Created with Inkscape (http://www.inkscape.org/) -->

<svg
   width="20"
   height="22.999939"
   viewBox="0 0 20 22.999939"
   version="1.1"
   id="svg1"
   xml:space="preserve"
   xmlns="http://www.w3.org/2000/svg"
   xmlns:svg="http://www.w3.org/2000/svg"><defs
     id="defs1" /><g
     id="layer1"
     transform="translate(3699.498,373.2029)"><g
       style="fill:none"
       id="g17"
       transform="translate(-3699.4979,-373.20292)"><path
         fill-rule="evenodd"
         clip-rule="evenodd"
         d="m 10,0 c 0.6904,0 1.25,0.572087 1.25,1.27778 V 18.6374 l 6.6162,-6.7631 c 0.4881,-0.499 1.2796,-0.499 1.7677,0 0.4881,0.499 0.4881,1.308 0,1.807 l -8.75,8.9445 c -0.4881,0.4989 -1.27963,0.4989 -1.76776,0 L 0.366113,13.6813 c -0.488151,-0.499 -0.488151,-1.308 0,-1.807 0.488163,-0.499 1.279617,-0.499 1.767777,0 l 6.61612,6.7631 V 1.27778 C 8.75001,0.572087 9.30964,0 10,0 Z"
         fill="#000000"
         id="path1-61" /></g></g></svg>
