<?xml version="1.0" encoding="UTF-8" standalone="no"?>
<!-- Created with Inkscape (http://www.inkscape.org/) -->

<svg
   width="19.999756"
   height="22.999939"
   viewBox="0 0 19.999756 22.999939"
   version="1.1"
   id="svg1"
   xml:space="preserve"
   xmlns="http://www.w3.org/2000/svg"
   xmlns:svg="http://www.w3.org/2000/svg"><defs
     id="defs1" /><g
     id="layer1"
     transform="translate(3673.7192,373.01766)"><g
       style="fill:#ffffff"
       id="g18"
       transform="translate(-3673.7193,-373.75864)"><path
         fill-rule="evenodd"
         clip-rule="evenodd"
         d="m 10,0.74095276 c 0.6904,0 1.25,0.57208704 1.25,1.27778004 V 19.378353 l 6.6162,-6.7631 c 0.4881,-0.499 1.2796,-0.499 1.7677,0 0.4881,0.499 0.4881,1.308 0,1.807 l -8.75,8.9445 c -0.4881,0.4989 -1.27963,0.4989 -1.76776,0 l -8.750027,-8.9445 c -0.488151,-0.499 -0.488151,-1.308 0,-1.807 0.488163,-0.499 1.279617,-0.499 1.767777,0 l 6.61612,6.7631 V 2.0187328 C 8.75001,1.3130398 9.30964,0.74095276 10,0.74095276 Z"
         fill="#000000"
         id="path17"
         style="fill:#ffffff" /></g></g></svg>
