<?xml version="1.0" encoding="UTF-8" standalone="no"?>
<!-- Created with Inkscape (http://www.inkscape.org/) -->

<svg
   width="17.992432"
   height="19.997559"
   viewBox="0 0 17.992432 19.997558"
   version="1.1"
   id="svg1"
   xml:space="preserve"
   xmlns="http://www.w3.org/2000/svg"
   xmlns:svg="http://www.w3.org/2000/svg"><defs
     id="defs1" /><g
     id="layer1"
     transform="translate(3336.4924,-84.908601)"><g
       style="fill:none"
       id="g15"
       transform="translate(-3336.9961,84.408605)"><path
         fill-rule="evenodd"
         clip-rule="evenodd"
         d="M 9.50001,1 C 10.0868,1 10.5625,1.47259 10.5625,2.05556 V 16.3961 l 5.6237,-5.5869 c 0.4149,-0.4122 1.0877,-0.4122 1.5026,0 0.4149,0.4122 0.4149,1.0806 0,1.4928 l -7.4375,7.3889 c -0.4149,0.4121 -1.08767,0.4121 -1.50258,0 L 1.3112,12.302 c -0.414932,-0.4122 -0.414932,-1.0806 0,-1.4928 0.41493,-0.4122 1.08767,-0.4122 1.50261,0 l 5.6237,5.5869 V 2.05556 C 8.43751,1.47259 8.91319,1 9.50001,1 Z"
         fill="#000000"
         stroke="#000000"
         id="path1-2" /></g><g
       style="fill:none"
       id="g16"
       transform="translate(-3336.9961,64.411048)"><path
         fill-rule="evenodd"
         clip-rule="evenodd"
         d="M 9.50001,1 C 10.0868,1 10.5625,1.47259 10.5625,2.05556 V 16.3961 l 5.6237,-5.5869 c 0.4149,-0.4122 1.0877,-0.4122 1.5026,0 0.4149,0.4122 0.4149,1.0806 0,1.4928 l -7.4375,7.3889 c -0.4149,0.4121 -1.08767,0.4121 -1.50258,0 L 1.3112,12.302 c -0.414932,-0.4122 -0.414932,-1.0806 0,-1.4928 0.41493,-0.4122 1.08767,-0.4122 1.50261,0 l 5.6237,5.5869 V 2.05556 C 8.43751,1.47259 8.91319,1 9.50001,1 Z"
         fill="#ffffff"
         stroke="#ffffff"
         id="path1-16" /></g></g></svg>
