<?xml version="1.0" encoding="UTF-8" standalone="no"?>
<!-- Created with Inkscape (http://www.inkscape.org/) -->

<svg
   width="29.748047"
   height="23.878906"
   viewBox="0 0 29.748047 23.878906"
   version="1.1"
   id="svg1"
   xml:space="preserve"
   xmlns="http://www.w3.org/2000/svg"
   xmlns:svg="http://www.w3.org/2000/svg"><defs
     id="defs1" /><g
     style="fill:none"
     id="g24"
     transform="translate(-8.1059455e-5)"><path
       d="m 25.2754,0 c 2.4747,0 4.4723,2.01206 4.4726,4.48242 V 19.3965 c 0,2.4706 -1.9977,4.4824 -4.4726,4.4824 H 4.47168 C 1.997,23.8786 0,21.8669 0,19.3965 V 4.48242 C 3.043e-4,2.01223 1.99718,2.76225e-4 4.47168,0 Z m -6.8242,12.6172 c -2.1192,1.595 -5.0351,1.5949 -7.1543,0 L 3,6.37109 V 19.3965 c 0,0.8239 0.6641,1.4821 1.47168,1.4824 H 25.2754 c 0.8078,0 1.4726,-0.6584 1.4726,-1.4824 V 6.37109 Z M 4.47168,3 c -0.26239,9e-5 -0.50943,0.07021 -0.72363,0.19238 0.00403,0.00239 0.00868,0.00441 0.01269,0.00684 l 0.12793,0.08594 9.21293,6.93454 c 1.0508,0.7908 2.4941,0.7909 3.5449,0 L 25.8594,3.28516 C 25.9044,3.25128 25.9507,3.22046 25.998,3.19238 25.7839,3.07064 25.5374,3 25.2754,3 Z"
       fill="#0559a7"
       id="path1-02" /></g></svg>
