<?xml version="1.0" encoding="UTF-8" standalone="no"?>
<!-- Created with Inkscape (http://www.inkscape.org/) -->

<svg
   width="32"
   height="31.999998"
   viewBox="0 0 32 31.999998"
   version="1.1"
   id="svg1"
   xmlns="http://www.w3.org/2000/svg"
   xmlns:svg="http://www.w3.org/2000/svg">
  <defs
     id="defs1" />
  <g
     id="layer1"
     transform="translate(2859.0922,197.27816)">
    <g
       id="g3"
       transform="translate(32)">
      <path
         id="path2"
         style="fill:#000000;fill-opacity:1;stroke:none;stroke-width:1.55246"
         d="m -2923.0922,-197.36605 v 2.21289 27.57227 2.12695 0.0879 h 32 v -2.21484 -29.78516 h -29.8169 z m 2.1831,2.21289 h 27.6338 v 27.57227 h -27.6338 z" />
      <path
         id="path3"
         style="fill:#000000;fill-opacity:1;stroke:none;stroke-width:0.888031"
         d="m -2918.8959,-186.5233 v 2.21678 h 8.1003 v 5.88357 h -5.8834 v -2.94179 h -2.2169 v 5.15595 h 2.2169 8.0976 v -2.21416 -5.88357 -2.21678 h -2.2142 z m 12.5313,0 v 2.21678 8.09773 h 2.2142 v -8.09773 h 2.2169 v 8.09773 h 2.2141 v -8.09773 h 2.2167 v 8.09773 h 2.2142 v -10.31451 z" />
    </g>
    <g
       id="g4"
       transform="translate(64,0.0879)">
      <path
         id="path1"
         style="fill:#0559a7;fill-opacity:1;stroke:none;stroke-width:1.55246"
         d="m -2923.0922,-197.36605 v 2.21289 27.57227 2.12695 0.0879 h 32 v -2.21484 -29.78516 h -29.8169 z m 2.1831,2.21289 h 27.6338 v 27.57227 h -27.6338 z" />
      <path
         id="path4"
         style="fill:#0559a7;fill-opacity:1;stroke:none;stroke-width:0.888031"
         d="m -2918.8959,-186.5233 v 2.21678 h 8.1003 v 5.88357 h -5.8834 v -2.94179 h -2.2169 v 5.15595 h 2.2169 8.0976 v -2.21416 -5.88357 -2.21678 h -2.2142 z m 12.5313,0 v 2.21678 8.09773 h 2.2142 v -8.09773 h 2.2169 v 8.09773 h 2.2141 v -8.09773 h 2.2167 v 8.09773 h 2.2142 v -10.31451 z" />
    </g>
  </g>
</svg>
