<?xml version="1.0" encoding="UTF-8" standalone="no"?>
<!-- Created with Inkscape (http://www.inkscape.org/) -->

<svg
   width="30"
   height="30.000061"
   viewBox="0 0 30 30.000061"
   version="1.1"
   id="svg1"
   xml:space="preserve"
   xmlns="http://www.w3.org/2000/svg"
   xmlns:svg="http://www.w3.org/2000/svg"><defs
     id="defs1" /><g
     style="fill:none"
     id="g15"
     transform="translate(-7.734375e-5)"><path
       fill-rule="evenodd"
       clip-rule="evenodd"
       d="M 15,0 C 23.2845,0 30,6.8849 30,15.3794 30,22.1729 25.707,27.936 19.7505,29.9715 18.99,30.123 18.72,29.6427 18.72,29.2332 c 0,-0.507 0.018,-2.163 0.018,-4.221 0,-1.434 -0.48,-2.3699 -1.0185,-2.8469 3.3405,-0.381 6.8505,-1.6816 6.8505,-7.5886 0,-1.68 -0.582,-3.051 -1.545,-4.128 0.156,-0.3885 0.6705,-1.95276 -0.147,-4.07076 0,0 -1.257,-0.4121 -4.1205,1.5769 C 17.559,7.61434 16.275,7.44302 15,7.43702 13.725,7.44302 12.4425,7.61434 11.2455,7.95484 8.379,5.96584 7.119,6.37794 7.119,6.37794 c -0.8145,2.118 -0.3,3.68226 -0.1455,4.07076 -0.9585,1.077 -1.545,2.448 -1.545,4.128 0,5.892 3.5025,7.2126 6.834,7.6011 -0.429,0.384 -0.8175,1.0614 -0.9525,2.0559 -0.855,0.393 -3.027,1.0731 -4.365,-1.2774 0,0 -0.7935,-1.4777 -2.2995,-1.5857 0,0 -1.4625,-0.0194 -0.102,0.9346 0,0 0.9825,0.4725 1.665,2.25 0,0 0.8805,2.7449 5.0535,1.8149 0.0075,1.2855 0.021,2.4971 0.021,2.8631 0,0.4065 -0.276,0.8822 -1.0245,0.7397 C 4.2975,27.9404 0,22.1744 0,15.3794 0,6.8849 6.717,0 15,0 Z"
       fill="#000000"
       id="path1-85" /></g></svg>
