<?xml version="1.0" encoding="UTF-8" standalone="no"?>
<!-- Created with Inkscape (http://www.inkscape.org/) -->

<svg
   width="23.5"
   height="33.071396"
   viewBox="0 0 23.5 33.071395"
   version="1.1"
   id="svg1"
   xml:space="preserve"
   xmlns="http://www.w3.org/2000/svg"
   xmlns:svg="http://www.w3.org/2000/svg"><defs
     id="defs1" /><g
     id="g10"
     style="fill:none"
     transform="translate(-0.2500793,-0.24999647)"><path
       d="m 9,28 h 5.7143 m -4.76187,3.5714 h 3.80947"
       stroke="#000000"
       stroke-width="3.5"
       stroke-linecap="round"
       id="path1-0"
       style="stroke:#202020;stroke-opacity:1" /><path
       d="m 5.44369,18.6864 1.57721,1.4845 c 0.44249,0.4165 0.69339,0.9972 0.69339,1.6048 0,0.9129 0.74,1.6529 1.65285,1.6529 h 5.26576 c 0.9128,0 1.6528,-0.74 1.6528,-1.6529 0,-0.6076 0.2509,-1.1883 0.6934,-1.6048 l 1.5772,-1.4845 c 2.2017,-2.0883 3.4311,-4.8315 3.4436,-7.6836 L 22,10.883 C 22,6.00986 17.5229,2 12,2 6.47716,2 2,6.00986 2,10.883 l 1e-4,0.1198 c 0.0124,2.8521 1.24189,5.5953 3.44359,7.6836 z"
       stroke="#000000"
       stroke-width="3.5"
       id="path2-28"
       style="fill:none;fill-opacity:1;stroke:#202020;stroke-opacity:1" /></g></svg>
