<?xml version="1.0" encoding="UTF-8" standalone="no"?>
<!-- Created with Inkscape (http://www.inkscape.org/) -->

<svg
   width="30"
   height="30.000046"
   viewBox="0 0 30 30.000045"
   version="1.1"
   id="svg1"
   xml:space="preserve"
   xmlns="http://www.w3.org/2000/svg"
   xmlns:svg="http://www.w3.org/2000/svg"><defs
     id="defs1" /><path
     d="m 25.909298,8.7875608e-6 c 2.2594,0 4.0908,1.8314799124392 4.0908,4.0908199124392 V 25.909169 c -10e-5,2.25929 -1.8315,4.09089 -4.0908,4.09089 H 4.0908977 c -2.2591,-2e-4 -4.09070004375,-1.8316 -4.09080004375,-4.09089 V 4.0908287 C 9.765625e-5,1.8315787 1.8316977,1.4878756e-4 4.0908977,8.7875608e-6 Z M 4.0908977,2.7275487 c -0.753,1.3e-4 -1.3633,0.61025 -1.3633,1.36328 V 25.909159 c 2e-4,0.753 0.6104,1.3632 1.3633,1.3633 H 25.909298 c 0.753,0 1.3631,-0.6102 1.3633,-1.3633 V 4.0908287 c 0,-0.75311 -0.6102,-1.36328 -1.3633,-1.36328 z m 4.0908,8.1807103 c 0.7532,0 1.3633,0.6111 1.3633,1.3642 v 10.9082 c 0,0.7532 -0.6101,1.3643 -1.3633,1.3643 h -1.3632 c -0.7531,0 -1.3643,-0.6111 -1.3643,-1.3643 v -10.9082 c 0,-0.7531 0.6112,-1.3642 1.3643,-1.3642 z m 6.8184003,0 c 0.7531,0 1.3643,0.6111 1.3643,1.3642 v 0.6817 c 0,0 0.6819,-2.0459 3.4091,-2.0459 2.727,1e-4 4.7724,1.3638 4.7725,4.0908 v 8.1816 c 0,0.7532 -0.6111,1.3643 -1.3643,1.3643 h -1.3632 c -0.7531,-10e-5 -1.3633,-0.6102 -1.3633,-1.3633 v -6.8184 c 0,-2.7272 -4.0908,-1.3638 -4.0908,0.6817 v 6.1357 c 0,0.7532 -0.6112,1.3643 -1.3643,1.3643 h -1.3633 c -0.7531,0 -1.3633,-0.6111 -1.3633,-1.3643 v -10.9082 c 0,-0.7531 0.6102,-1.3642 1.3633,-1.3642 z M 7.5000977,5.4541087 c 1.1296,9e-5 2.0449,0.91628 2.0449,2.0459 -2e-4,1.12942 -0.9154,2.04484 -2.0449,2.04493 -1.1295,0 -2.0457,-0.91545 -2.0459,-2.04493 0,-1.12967 0.9162,-2.0459 2.0459,-2.0459 z"
     fill="#000000"
     id="path1-54"
     style="fill:#202020;fill-opacity:1" /></svg>
