<?xml version="1.0" encoding="UTF-8" standalone="no"?>
<!-- Created with Inkscape (http://www.inkscape.org/) -->

<svg
   width="30"
   height="30.000061"
   viewBox="0 0 30 30.000061"
   version="1.1"
   id="svg1"
   xml:space="preserve"
   xmlns="http://www.w3.org/2000/svg"
   xmlns:svg="http://www.w3.org/2000/svg"><defs
     id="defs1" /><g
     style="fill:none"
     id="g18"
     transform="translate(5.4687498e-6,-0.00195969)"><path
       d="M 25.9092,0.00195312 C 28.1686,0.00195312 30,1.83343 30,4.09277 V 25.9111 c -10e-5,2.2593 -1.8315,4.0909 -4.0908,4.0909 H 4.09082 C 1.83166,30.0018 1.23248e-4,28.1704 0,25.9111 V 4.09277 C 0,1.83351 1.83158,0.00207652 4.09082,0.00195312 Z M 4.09082,2.72949 C 3.33782,2.72962 2.72754,3.33974 2.72754,4.09277 V 25.9111 c 1.2e-4,0.753 0.61035,1.3632 1.36328,1.3633 H 25.9092 c 0.753,0 1.3631,-0.6102 1.3633,-1.3633 V 4.09277 c 0,-0.75311 -0.6102,-1.36328 -1.3633,-1.36328 z m 4.09082,8.18071 c 0.75311,0 1.36328,0.6111 1.36328,1.3642 v 10.9082 c 0,0.7532 -0.61017,1.3643 -1.36328,1.3643 H 6.81836 c -0.75311,0 -1.36426,-0.6111 -1.36426,-1.3643 V 12.2744 c 0,-0.7531 0.61115,-1.3642 1.36426,-1.3642 z m 6.81836,0 c 0.7531,0 1.3643,0.6111 1.3643,1.3642 v 0.6817 c 0,0 0.6819,-2.0459 3.4091,-2.0459 2.727,10e-5 4.7724,1.3638 4.7725,4.0908 v 8.1816 c 0,0.7532 -0.6111,1.3643 -1.3643,1.3643 h -1.3632 c -0.7531,-10e-5 -1.3633,-0.6102 -1.3633,-1.3633 v -6.8184 c 0,-2.7272 -4.0908,-1.3638 -4.0908,0.6817 v 6.1357 c 0,0.7532 -0.6112,1.3643 -1.3643,1.3643 h -1.3633 c -0.7531,0 -1.3633,-0.6111 -1.3633,-1.3643 V 12.2744 c 0,-0.7531 0.6102,-1.3642 1.3633,-1.3642 z M 7.5,5.45605 c 1.1296,9e-5 2.04492,0.91628 2.04492,2.0459 C 9.54468,8.63137 8.62945,9.54679 7.5,9.54688 c -1.12953,0 -2.04566,-0.91545 -2.0459,-2.04493 0,-1.12967 0.91622,-2.0459 2.0459,-2.0459 z"
       fill="#ffffff"
       id="path1-3" /></g></svg>
