<?xml version="1.0" encoding="UTF-8" standalone="no"?>
<!-- Created with Inkscape (http://www.inkscape.org/) -->

<svg
   width="30"
   height="29.999998"
   viewBox="0 0 30 29.999998"
   version="1.1"
   id="svg1"
   xml:space="preserve"
   xmlns="http://www.w3.org/2000/svg"
   xmlns:svg="http://www.w3.org/2000/svg"><defs
     id="defs1" /><g
     id="layer1"
     transform="translate(3466.9763,-70.019021)"><g
       style="fill:none"
       id="g10"
       transform="translate(-3466.9762,100.01901)"><path
         d="M 25.9092,0 C 28.1686,0 30,1.83148 30,4.09082 V 25.9092 C 29.9999,28.1685 28.1685,30 25.9092,30 H 4.09082 C 1.83166,29.9999 1.23248e-4,28.1684 0,25.9092 V 4.09082 C 0,1.83156 1.83158,1.23393e-4 4.09082,0 Z M 4.09082,2.72754 C 3.33782,2.72766 2.72754,3.33779 2.72754,4.09082 V 25.9092 c 1.2e-4,0.7529 0.61035,1.3631 1.36328,1.3633 H 25.9092 c 0.753,0 1.3631,-0.6103 1.3633,-1.3633 V 4.09082 c 0,-0.75311 -0.6102,-1.36328 -1.3633,-1.36328 z m 4.09082,8.18066 c 0.75311,0 1.36328,0.6111 1.36328,1.3643 v 10.9082 c 0,0.7531 -0.61017,1.3642 -1.36328,1.3642 H 6.81836 c -0.75311,0 -1.36426,-0.6111 -1.36426,-1.3642 V 12.2725 c 0,-0.7531 0.61115,-1.3643 1.36426,-1.3643 z m 6.81836,0 c 0.7531,0 1.3643,0.6111 1.3643,1.3643 v 0.6816 c 0,0 0.6819,-2.0459 3.4091,-2.0459 2.727,10e-5 4.7724,1.3638 4.7725,4.0908 v 8.1817 c 0,0.7531 -0.6111,1.3642 -1.3643,1.3642 h -1.3632 c -0.7531,0 -1.3633,-0.6102 -1.3633,-1.3633 v -6.8183 c 0,-2.7273 -4.0908,-1.3638 -4.0908,0.6816 v 6.1358 c 0,0.7531 -0.6112,1.3642 -1.3643,1.3642 h -1.3633 c -0.7531,0 -1.3633,-0.6111 -1.3633,-1.3642 V 12.2725 c 0,-0.7531 0.6102,-1.3643 1.3633,-1.3643 z M 7.5,5.4541 C 8.6296,5.45419 9.54492,6.37038 9.54492,7.5 9.54468,8.62942 8.62945,9.54483 7.5,9.54492 6.37047,9.54492 5.45434,8.62947 5.4541,7.5 5.4541,6.37032 6.37032,5.4541 7.5,5.4541 Z"
         fill="#0559a7"
         id="path1-5" /></g><g
       style="fill:none"
       id="g12"
       transform="translate(-3466.9762,70.019008)"><path
         d="M 25.9092,0 C 28.1686,0 30,1.83148 30,4.09082 V 25.9092 C 29.9999,28.1685 28.1685,30 25.9092,30 H 4.09082 C 1.83166,29.9999 1.23248e-4,28.1684 0,25.9092 V 4.09082 C 0,1.83156 1.83158,1.23393e-4 4.09082,0 Z M 4.09082,2.72754 C 3.33782,2.72766 2.72754,3.33779 2.72754,4.09082 V 25.9092 c 1.2e-4,0.7529 0.61035,1.3631 1.36328,1.3633 H 25.9092 c 0.753,0 1.3631,-0.6103 1.3633,-1.3633 V 4.09082 c 0,-0.75311 -0.6102,-1.36328 -1.3633,-1.36328 z m 4.09082,8.18066 c 0.75311,0 1.36328,0.6111 1.36328,1.3643 v 10.9082 c 0,0.7531 -0.61017,1.3642 -1.36328,1.3642 H 6.81836 c -0.75311,0 -1.36426,-0.6111 -1.36426,-1.3642 V 12.2725 c 0,-0.7531 0.61115,-1.3643 1.36426,-1.3643 z m 6.81836,0 c 0.7531,0 1.3643,0.6111 1.3643,1.3643 v 0.6816 c 0,0 0.6819,-2.0459 3.4091,-2.0459 2.727,10e-5 4.7724,1.3638 4.7725,4.0908 v 8.1817 c 0,0.7531 -0.6111,1.3642 -1.3643,1.3642 h -1.3632 c -0.7531,0 -1.3633,-0.6102 -1.3633,-1.3633 v -6.8183 c 0,-2.7273 -4.0908,-1.3638 -4.0908,0.6816 v 6.1358 c 0,0.7531 -0.6112,1.3642 -1.3643,1.3642 h -1.3633 c -0.7531,0 -1.3633,-0.6111 -1.3633,-1.3642 V 12.2725 c 0,-0.7531 0.6102,-1.3643 1.3633,-1.3643 z M 7.5,5.4541 C 8.6296,5.45419 9.54492,6.37038 9.54492,7.5 9.54468,8.62942 8.62945,9.54483 7.5,9.54492 6.37047,9.54492 5.45434,8.62947 5.4541,7.5 5.4541,6.37032 6.37032,5.4541 7.5,5.4541 Z"
         fill="#01ec70"
         id="path1-1" /></g></g></svg>
