<?xml version="1.0" encoding="UTF-8" standalone="no"?>
<!-- Created with Inkscape (http://www.inkscape.org/) -->

<svg
   width="30"
   height="29.999998"
   viewBox="0 0 30 29.999998"
   version="1.1"
   id="svg1"
   xml:space="preserve"
   xmlns="http://www.w3.org/2000/svg"
   xmlns:svg="http://www.w3.org/2000/svg"><defs
     id="defs1" /><path
     d="m 25.909209,1.3396702e-5 c 2.2594,0 4.0908,1.831480003298 4.0908,4.090820003298 V 25.909213 c -10e-5,2.2593 -1.8315,4.0908 -4.0908,4.0908 H 4.0908094 c -2.2591,-10e-5 -4.090700025,-1.8316 -4.090800025,-4.0908 V 4.0908334 C 9.375e-6,1.8315734 1.8316094,1.333967e-4 4.0908094,1.3396702e-5 Z M 4.0908094,2.7275534 c -0.753,1.2e-4 -1.3633,0.61025 -1.3633,1.36328 V 25.909213 c 2e-4,0.7529 0.6104,1.3631 1.3633,1.3633 H 25.909209 c 0.753,0 1.3631,-0.6103 1.3633,-1.3633 V 4.0908334 c 0,-0.75311 -0.6102,-1.36328 -1.3633,-1.36328 z m 4.0908,8.1806596 c 0.7531,0 1.3633,0.6111 1.3633,1.3643 v 10.9082 c 0,0.7531 -0.6102,1.3642 -1.3633,1.3642 h -1.3632 c -0.7532,0 -1.3643,-0.6111 -1.3643,-1.3642 v -10.9082 c 0,-0.7531 0.6111,-1.3643 1.3643,-1.3643 z m 6.8183996,0 c 0.7531,0 1.3643,0.6111 1.3643,1.3643 v 0.6816 c 0,0 0.6819,-2.0459 3.4091,-2.0459 2.727,10e-5 4.7724,1.3638 4.7725,4.0908 v 8.1817 c 0,0.7531 -0.6111,1.3642 -1.3643,1.3642 h -1.3632 c -0.7531,0 -1.3633,-0.6102 -1.3633,-1.3633 v -6.8183 c 0,-2.7273 -4.0908,-1.3638 -4.0908,0.6816 v 6.1358 c 0,0.7531 -0.6112,1.3642 -1.3643,1.3642 h -1.3633 c -0.7531,0 -1.3633,-0.6111 -1.3633,-1.3642 v -10.9082 c 0,-0.7531 0.6102,-1.3643 1.3633,-1.3643 z M 7.5000094,5.4541134 c 1.1296,9e-5 2.0449,0.91628 2.0449,2.0459 -2e-4,1.12942 -0.9155,2.04483 -2.0449,2.04492 -1.1295,0 -2.0457,-0.91545 -2.0459,-2.04492 0,-1.12968 0.9162,-2.0459 2.0459,-2.0459 z"
     fill="#0559a7"
     id="path1-5"
     style="fill:#202020;fill-opacity:1" /></svg>
