<?xml version="1.0" encoding="UTF-8" standalone="no"?>
<!-- Created with Inkscape (http://www.inkscape.org/) -->

<svg
   width="21.5"
   height="21.5"
   viewBox="0 0 21.5 21.5"
   version="1.1"
   id="svg1"
   xml:space="preserve"
   xmlns="http://www.w3.org/2000/svg"
   xmlns:svg="http://www.w3.org/2000/svg"><defs
     id="defs1" /><g
     id="layer1"
     transform="translate(3370.8481,16.332296)"><g
       style="fill:none"
       id="g20"
       transform="translate(-3371.598,-38.582297)"><path
         d="m 7.27365,11.5 h 0.01056 m 4.21169,0 h 0.0105 m 4.2117,0 h 0.0106 M 21,11.5 c 0,5.2467 -4.2533,9.5 -9.5,9.5 -2.14954,0 -9.49924,0 -9.49924,0 0,0 1.64581,-3.9519 0.98715,-5.2769 C 2.35556,14.4509 2,13.017 2,11.5 2,6.2533 6.25329,2 11.5,2 16.7467,2 21,6.2533 21,11.5 Z"
         stroke="#000000"
         stroke-width="2.5"
         stroke-linecap="round"
         stroke-linejoin="round"
         id="path1-3" /></g><g
       style="fill:none"
       id="g22"
       transform="translate(-3371.598,-17.082297)"><path
         d="m 7.27365,11.5 h 0.01056 m 4.21169,0 h 0.0105 m 4.2117,0 h 0.0106 M 21,11.5 c 0,5.2467 -4.2533,9.5 -9.5,9.5 -2.14954,0 -9.49924,0 -9.49924,0 0,0 1.64581,-3.9519 0.98715,-5.2769 C 2.35556,14.4509 2,13.017 2,11.5 2,6.2533 6.25329,2 11.5,2 16.7467,2 21,6.2533 21,11.5 Z"
         stroke="#01ec70"
         stroke-width="2.5"
         stroke-linecap="round"
         stroke-linejoin="round"
         id="path1-87" /></g></g></svg>
