<?xml version="1.0" encoding="UTF-8" standalone="no"?>
<!-- Created with Inkscape (http://www.inkscape.org/) -->

<svg
   width="25.00293"
   height="25.002869"
   viewBox="0 0 25.00293 25.002868"
   version="1.1"
   id="svg1"
   xml:space="preserve"
   xmlns="http://www.w3.org/2000/svg"
   xmlns:svg="http://www.w3.org/2000/svg"><defs
     id="defs1" /><g
     style="fill:none"
     id="g23"
     transform="translate(-0.49996565,-0.49710395)"><path
       d="M 2,5.05556 C 2,15.5183 10.4817,24 20.9444,24 c 0.4721,0 0.9401,-0.0172 1.4035,-0.0512 0.5318,-0.039 0.7976,-0.0584 1.0398,-0.1978 0.2004,-0.1153 0.3905,-0.3199 0.4909,-0.5283 C 24,22.9711 24,22.6777 24,22.0909 v -3.4434 c 0,-0.4935 0,-0.7403 -0.0813,-0.9517 -0.0716,-0.1869 -0.1882,-0.3532 -0.3393,-0.4845 -0.171,-0.1486 -0.4029,-0.233 -0.8666,-0.4016 l -3.9195,-1.4253 c -0.5396,-0.1961 -0.8094,-0.2943 -1.0654,-0.2777 -0.2257,0.0147 -0.4429,0.0918 -0.6275,0.2226 -0.2092,0.1483 -0.3569,0.3944 -0.6523,0.8869 l -1.0037,1.6727 C 12.2057,16.4221 9.5801,13.7931 8.11111,10.5556 L 9.78388,9.55189 C 10.2762,9.25649 10.5224,9.10879 10.6707,8.89952 10.8015,8.71499 10.8786,8.49778 10.8933,8.27208 10.9099,8.01611 10.8117,7.74631 10.6156,7.20673 L 9.19032,3.28726 C 9.02167,2.82348 8.93735,2.59159 8.78874,2.42057 8.65746,2.26949 8.49109,2.15296 8.30425,2.08122 8.09273,2 7.84599,2 7.3525,2 H 3.90912 C 3.3223,2 3.02888,2 2.77731,2.12131 2.56894,2.22178 2.36439,2.4119 2.24897,2.61237 2.10961,2.85442 2.09014,3.12031 2.0512,3.65211 2.01727,4.1155 2,4.58351 2,5.05556 Z"
       stroke="#01ec70"
       stroke-width="3"
       stroke-linecap="round"
       stroke-linejoin="round"
       id="path1-0" /></g></svg>
