<?xml version="1.0" encoding="UTF-8" standalone="no"?>
<!-- Created with Inkscape (http://www.inkscape.org/) -->

<svg
   width="33.5"
   height="28.499998"
   viewBox="0 0 33.5 28.499998"
   version="1.1"
   id="svg1"
   xml:space="preserve"
   xmlns="http://www.w3.org/2000/svg"
   xmlns:svg="http://www.w3.org/2000/svg"><defs
     id="defs1" /><path
     d="m 31.749891,26.749793 c 0,-2.9026 -2.7827,-5.372 -6.6667,-6.2873 m -3.3333,6.2875 c 0,-3.6818 -4.4772,-6.6667 -10,-6.6667 -5.5228496,0 -9.9999996,2.9849 -9.9999996,6.6667 m 19.9999996,-11.6667 c 3.6818,0 6.6667,-2.9848 6.6667,-6.6666305 0,-3.6819 -2.9849,-6.66667 -6.6667,-6.66667 m -10,13.3333005 c -3.6818996,0 -6.6666696,-2.9848 -6.6666696,-6.6666305 0,-3.6819 2.98477,-6.66667 6.6666696,-6.66667 3.6818,0 6.6667,2.98477 6.6667,6.66667 0,3.6818305 -2.9849,6.6666305 -6.6667,6.6666305 z"
     stroke="#000000"
     stroke-width="3.5"
     stroke-linecap="round"
     stroke-linejoin="round"
     id="path1-5"
     style="fill:none;stroke:#202020;stroke-opacity:1" /></svg>
