<?xml version="1.0" encoding="UTF-8" standalone="no"?>
<!-- Created with Inkscape (http://www.inkscape.org/) -->

<svg
   width="33.5"
   height="28.499998"
   viewBox="0 0 33.5 28.499998"
   version="1.1"
   id="svg1"
   xml:space="preserve"
   xmlns="http://www.w3.org/2000/svg"
   xmlns:svg="http://www.w3.org/2000/svg"><defs
     id="defs1" /><g
     style="fill:none"
     id="g24"
     transform="translate(-83.380539,93.359308)"><path
       d="m 115.13066,-66.609513 c 0,-2.9026 -2.7827,-5.372 -6.6667,-6.2873 m -3.3333,6.2875 c 0,-3.6818 -4.4772,-6.6667 -10.000001,-6.6667 -5.52285,0 -10,2.9849 -10,6.6667 m 20.000001,-11.6667 c 3.6818,0 6.6667,-2.9848 6.6667,-6.66663 0,-3.6819 -2.9849,-6.66667 -6.6667,-6.66667 m -10.000001,13.3333 c -3.6819,0 -6.66667,-2.9848 -6.66667,-6.66663 0,-3.6819 2.98477,-6.66667 6.66667,-6.66667 3.6818,0 6.666701,2.98477 6.666701,6.66667 0,3.68183 -2.984901,6.66663 -6.666701,6.66663 z"
       stroke="#ffffff"
       stroke-width="3.5"
       stroke-linecap="round"
       stroke-linejoin="round"
       id="path1-1" /></g></svg>
