<?xml version="1.0" encoding="UTF-8" standalone="no"?>
<!-- Created with Inkscape (http://www.inkscape.org/) -->

<svg
   width="33"
   height="33"
   viewBox="0 0 33 32.999999"
   version="1.1"
   id="svg1"
   xml:space="preserve"
   xmlns="http://www.w3.org/2000/svg"
   xmlns:svg="http://www.w3.org/2000/svg"><defs
     id="defs1" /><g
     style="fill:none"
     id="g23"
     transform="translate(-32.999989)"><path
       d="m 17.1934,0 c 0.2166,0.0195013 0.4274,0.0816801 0.6201,0.182617 0.1926,0.100868 0.3635,0.238431 0.5029,0.405274 0.1394,0.167006 0.2447,0.360709 0.3096,0.568359 0.0648,0.20753 0.0888,0.42604 0.0693,0.64258 -0.0195,0.21658 -0.0817,0.42748 -0.1826,0.62012 -0.1009,0.19266 -0.2393,0.36354 -0.4063,0.50293 -0.1669,0.13935 -0.3598,0.24468 -0.5673,0.30957 -0.2076,0.06486 -0.426,0.08784 -0.6426,0.06835 H 16.5 c -2.6105,8e-5 -5.1624,0.77431 -7.33301,2.22461 -2.17058,1.45035 -3.86223,3.51203 -4.86133,5.92379 -0.99906,2.412 -1.26125,5.0665 -0.75195,7.627 0.50932,2.5605 1.76724,4.9127 3.61328,6.7588 1.84591,1.8458 4.19761,3.1029 6.75781,3.6123 2.5605,0.5093 5.215,0.2481 7.627,-0.751 2.4118,-0.999 4.4734,-2.6908 5.9238,-4.8613 1.4504,-2.1707 2.2246,-4.7233 2.2246,-7.334 0.0082,-0.1319 0.0082,-0.2646 0,-0.3965 -0.0203,-0.2167 0.0029,-0.4357 0.0674,-0.6435 0.0645,-0.2079 0.1691,-0.4013 0.3086,-0.5684 0.1395,-0.167 0.3109,-0.3046 0.5039,-0.4053 0.1931,-0.1006 0.405,-0.162 0.622,-0.1806 0.2168,-0.0204 0.4357,0.0018 0.6436,0.0664 0.208,0.0645 0.4012,0.17 0.5684,0.3095 0.167,0.1396 0.3046,0.3109 0.4052,0.5039 0.1006,0.1931 0.162,0.4043 0.1807,0.6211 V 16.5 c 0,4.3759 -1.7379,8.5727 -4.832,11.667 C 25.0736,31.2613 20.876,33 16.5,33 12.1241,32.9999 7.92725,31.2612 4.83301,28.167 1.73882,25.0727 6.31381e-8,20.876 0,16.5 0,12.124 1.73882,7.92734 4.83301,4.83301 7.92725,1.73875 12.1241,1.04939e-4 16.5,0 Z m -2.6729,6.73242 c 0.4376,-0.08751 0.8924,0.00148 1.2637,0.24903 0.3712,0.24749 0.6282,0.63285 0.7158,1.07031 0.0875,0.43761 -0.0025,0.89235 -0.25,1.26367 -0.2475,0.37113 -0.6319,0.62925 -1.0693,0.71677 -1.1741,0.227 -2.2643,0.7689 -3.1543,1.5674 -0.89,0.7985 -1.5468,1.8233 -1.8994,2.9658 -0.35266,1.1427 -0.38788,2.3602 -0.1026,3.5215 0.2853,1.1611 0.8808,2.2232 1.7227,3.0723 0.8418,0.8489 1.8981,1.4538 3.0566,1.749 1.1588,0.2952 2.3769,0.2696 3.5225,-0.0732 1.1454,-0.3429 2.1764,-0.9909 2.9824,-1.8741 0.8059,-0.8831 1.3567,-1.9687 1.5937,-3.1406 0.0876,-0.4376 0.3455,-0.8228 0.7168,-1.0703 0.3713,-0.2475 0.8261,-0.3375 1.2637,-0.25 0.4374,0.0876 0.8219,0.3456 1.0693,0.7168 0.2476,0.3713 0.3376,0.8261 0.25,1.2637 v -0.0664 c -0.3581,1.752 -1.1844,3.374 -2.3906,4.6943 -1.2062,1.3203 -2.7472,2.2901 -4.4599,2.8047 C 17.639,26.4276 15.819,26.468 14.085,26.0312 12.3508,25.5944 10.7675,24.6962 9.50293,23.4316 8.23841,22.1671 7.34015,20.5837 6.90332,18.8496 6.46654,17.1156 6.50699,15.2956 7.02148,13.583 7.53609,11.8703 8.50492,10.3283 9.8252,9.12207 11.1455,7.91586 12.7684,7.09055 14.5205,6.73242 Z M 26.0762,0.0322266 c 0.3199,-0.0615194 0.6509,-0.02664938 0.9511,0.0996094 0.3014,0.123783 0.5592,0.334354 0.7413,0.604492 0.1819,0.269982 0.2805,0.587552 0.2822,0.913082 V 4.9502 h 3.2998 c 0.3257,0.00166 0.644,0.09923 0.914,0.28125 0.27,0.18199 0.4798,0.44007 0.6036,0.74121 0.1263,0.30048 0.1612,0.63206 0.0996,0.95214 -0.0617,0.32002 -0.2174,0.6147 -0.4463,0.84668 l -4.9492,4.95022 c -0.1541,0.1528 -0.3372,0.2733 -0.5381,0.3554 -0.2011,0.0822 -0.4167,0.1244 -0.6338,0.1231 H 22.127 l -3.6299,3.6465 c -0.1534,0.1545 -0.3362,0.2766 -0.5371,0.3603 -0.2011,0.0838 -0.417,0.127 -0.6348,0.127 -0.2176,-10e-5 -0.4329,-0.0433 -0.6338,-0.127 -0.2009,-0.0837 -0.3838,-0.2058 -0.5371,-0.3603 -0.1546,-0.1534 -0.2776,-0.3361 -0.3613,-0.5371 -0.0838,-0.2011 -0.127,-0.417 -0.127,-0.6348 0,-0.2178 0.0432,-0.4337 0.127,-0.6348 0.0837,-0.2009 0.2067,-0.3838 0.3613,-0.5371 L 19.8008,10.873 V 6.59961 C 19.7996,6.38267 19.8409,6.16765 19.9229,5.9668 20.005,5.76577 20.1264,5.58288 20.2793,5.42871 l 4.9492,-4.950194 c 0.232,-0.22895 0.5276,-0.3846221 0.8477,-0.4462894 z"
       fill="#ffffff"
       id="path1-3" /></g><g
     style="fill:none"
     id="g26"
     transform="translate(1.09375e-5)"><path
       d="m 17.1934,0 c 0.2166,0.0195013 0.4274,0.0816801 0.6201,0.182617 0.1926,0.100868 0.3635,0.238431 0.5029,0.405274 0.1394,0.167006 0.2447,0.360709 0.3096,0.568359 0.0648,0.20753 0.0888,0.42604 0.0693,0.64258 -0.0195,0.21658 -0.0817,0.42748 -0.1826,0.62012 -0.1009,0.19266 -0.2393,0.36354 -0.4063,0.50293 -0.1669,0.13935 -0.3598,0.24468 -0.5673,0.30957 -0.2076,0.06486 -0.426,0.08784 -0.6426,0.06835 H 16.5 c -2.6105,8e-5 -5.1624,0.77431 -7.33301,2.22461 -2.17058,1.45035 -3.86223,3.51203 -4.86133,5.92379 -0.99906,2.412 -1.26125,5.0665 -0.75195,7.627 0.50932,2.5605 1.76724,4.9127 3.61328,6.7588 1.84591,1.8458 4.19761,3.1029 6.75781,3.6123 2.5605,0.5093 5.215,0.2481 7.627,-0.751 2.4118,-0.999 4.4734,-2.6908 5.9238,-4.8613 1.4504,-2.1707 2.2246,-4.7233 2.2246,-7.334 0.0082,-0.1319 0.0082,-0.2646 0,-0.3965 -0.0203,-0.2167 0.0029,-0.4357 0.0674,-0.6435 0.0645,-0.2079 0.1691,-0.4013 0.3086,-0.5684 0.1395,-0.167 0.3109,-0.3046 0.5039,-0.4053 0.1931,-0.1006 0.405,-0.162 0.622,-0.1806 0.2168,-0.0204 0.4357,0.0018 0.6436,0.0664 0.208,0.0645 0.4012,0.17 0.5684,0.3095 0.167,0.1396 0.3046,0.3109 0.4052,0.5039 0.1006,0.1931 0.162,0.4043 0.1807,0.6211 V 16.5 c 0,4.3759 -1.7379,8.5727 -4.832,11.667 C 25.0736,31.2613 20.876,33 16.5,33 12.1241,32.9999 7.92725,31.2612 4.83301,28.167 1.73882,25.0727 6.31381e-8,20.876 0,16.5 0,12.124 1.73882,7.92734 4.83301,4.83301 7.92725,1.73875 12.1241,1.04939e-4 16.5,0 Z m -2.6729,6.73242 c 0.4376,-0.08751 0.8924,0.00148 1.2637,0.24903 0.3712,0.24749 0.6282,0.63285 0.7158,1.07031 0.0875,0.43761 -0.0025,0.89235 -0.25,1.26367 -0.2475,0.37113 -0.6319,0.62925 -1.0693,0.71677 -1.1741,0.227 -2.2643,0.7689 -3.1543,1.5674 -0.89,0.7985 -1.5468,1.8233 -1.8994,2.9658 -0.35266,1.1427 -0.38788,2.3602 -0.1026,3.5215 0.2853,1.1611 0.8808,2.2232 1.7227,3.0723 0.8418,0.8489 1.8981,1.4538 3.0566,1.749 1.1588,0.2952 2.3769,0.2696 3.5225,-0.0732 1.1454,-0.3429 2.1764,-0.9909 2.9824,-1.8741 0.8059,-0.8831 1.3567,-1.9687 1.5937,-3.1406 0.0876,-0.4376 0.3455,-0.8228 0.7168,-1.0703 0.3713,-0.2475 0.8261,-0.3375 1.2637,-0.25 0.4374,0.0876 0.8219,0.3456 1.0693,0.7168 0.2476,0.3713 0.3376,0.8261 0.25,1.2637 v -0.0664 c -0.3581,1.752 -1.1844,3.374 -2.3906,4.6943 -1.2062,1.3203 -2.7472,2.2901 -4.4599,2.8047 C 17.639,26.4276 15.819,26.468 14.085,26.0312 12.3508,25.5944 10.7675,24.6962 9.50293,23.4316 8.23841,22.1671 7.34015,20.5837 6.90332,18.8496 6.46654,17.1156 6.50699,15.2956 7.02148,13.583 7.53609,11.8703 8.50492,10.3283 9.8252,9.12207 11.1455,7.91586 12.7684,7.09055 14.5205,6.73242 Z M 26.0762,0.0322266 c 0.3199,-0.0615194 0.6509,-0.02664938 0.9511,0.0996094 0.3014,0.123783 0.5592,0.334354 0.7413,0.604492 0.1819,0.269982 0.2805,0.587552 0.2822,0.913082 V 4.9502 h 3.2998 c 0.3257,0.00166 0.644,0.09923 0.914,0.28125 0.27,0.18199 0.4798,0.44007 0.6036,0.74121 0.1263,0.30048 0.1612,0.63206 0.0996,0.95214 -0.0617,0.32002 -0.2174,0.6147 -0.4463,0.84668 l -4.9492,4.95022 c -0.1541,0.1528 -0.3372,0.2733 -0.5381,0.3554 -0.2011,0.0822 -0.4167,0.1244 -0.6338,0.1231 H 22.127 l -3.6299,3.6465 c -0.1534,0.1545 -0.3362,0.2766 -0.5371,0.3603 -0.2011,0.0838 -0.417,0.127 -0.6348,0.127 -0.2176,-10e-5 -0.4329,-0.0433 -0.6338,-0.127 -0.2009,-0.0837 -0.3838,-0.2058 -0.5371,-0.3603 -0.1546,-0.1534 -0.2776,-0.3361 -0.3613,-0.5371 -0.0838,-0.2011 -0.127,-0.417 -0.127,-0.6348 0,-0.2178 0.0432,-0.4337 0.127,-0.6348 0.0837,-0.2009 0.2067,-0.3838 0.3613,-0.5371 L 19.8008,10.873 V 6.59961 C 19.7996,6.38267 19.8409,6.16765 19.9229,5.9668 20.005,5.76577 20.1264,5.58288 20.2793,5.42871 l 4.9492,-4.950194 c 0.232,-0.22895 0.5276,-0.3846221 0.8477,-0.4462894 z"
       fill="#000000"
       id="path1-31" /></g></svg>
