<?xml version="1.0" encoding="UTF-8" standalone="no"?>
<!-- Created with Inkscape (http://www.inkscape.org/) -->

<svg
   width="25.395508"
   height="31.898376"
   viewBox="0 0 25.395508 31.898376"
   version="1.1"
   id="svg1"
   xml:space="preserve"
   xmlns="http://www.w3.org/2000/svg"
   xmlns:svg="http://www.w3.org/2000/svg"><defs
     id="defs1" /><g
     style="fill:none"
     id="g20"
     transform="translate(-1.7382967e-5)"><path
       d="m 12.6973,0 c 7.0571,8.70533e-5 12.6981,5.89256 12.6982,13.0596 0,3.6525 -1.6069,6.8574 -3.7969,9.7929 -2.1741,2.9144 -5.0726,5.7504 -7.8232,8.5899 -0.2825,0.2916 -0.6721,0.456 -1.0781,0.456 -0.406,-10e-5 -0.7947,-0.1644 -1.0772,-0.456 C 8.8694,28.6028 5.9711,25.7669 3.79688,22.8525 1.60683,19.9169 4.62909e-5,16.7122 0,13.0596 1.46846e-4,5.89262 5.64022,1.86711e-4 12.6973,0 Z m 0,3 C 7.38628,3.00019 3.00015,7.45884 3,13.0596 c 5e-5,2.731 1.19238,5.3063 3.20117,7.999 1.76767,2.3694 4.04993,4.6847 6.49613,7.1904 2.4462,-2.5058 4.7284,-4.8209 6.4961,-7.1904 2.0088,-2.6928 3.2021,-5.2679 3.2021,-7.999 C 22.3954,7.45878 18.0083,3.00009 12.6973,3 Z m 0,3.42188 c 3.4839,10e-5 6.2987,2.8332 6.2988,6.31642 0,3.4833 -2.8149,6.3163 -6.2988,6.3164 -3.484,-10e-5 -6.29886,-2.8331 -6.29886,-6.3164 5e-5,-3.48323 2.81488,-6.31635 6.29886,-6.31642 z m 0,3 c -1.8168,7e-5 -3.29881,1.47972 -3.29886,3.31642 0,1.8368 1.48196,3.3163 3.29886,3.3164 1.8168,-10e-5 3.2988,-1.4797 3.2988,-3.3164 C 15.996,10.9016 14.514,9.42198 12.6973,9.42188 Z"
       fill="#0559a7"
       id="path1-13" /></g></svg>
