<?xml version="1.0" encoding="UTF-8" standalone="no"?>
<!-- Created with Inkscape (http://www.inkscape.org/) -->

<svg
   width="30"
   height="30.000092"
   viewBox="0 0 30 30.000091"
   version="1.1"
   id="svg1"
   xml:space="preserve"
   xmlns="http://www.w3.org/2000/svg"
   xmlns:svg="http://www.w3.org/2000/svg"><defs
     id="defs1" /><path
     fill-rule="evenodd"
     clip-rule="evenodd"
     d="m 15.000015,3.1359025e-6 c 8.2845,0 15,6.8849000640975 15,15.3793998640975 0,6.7935 -4.293,12.5566 -10.2495,14.5921 -0.7605,0.1515 -1.0305,-0.3288 -1.0305,-0.7383 0,-0.507 0.018,-2.163 0.018,-4.221 0,-1.434 -0.48,-2.3699 -1.0185,-2.8469 3.3405,-0.381 6.8505,-1.6816 6.8505,-7.5886 0,-1.68 -0.582,-3.051 -1.545,-4.128 0.156,-0.3885 0.6705,-1.9527598 -0.147,-4.0707598 0,0 -1.257,-0.4121 -4.1205,1.5769 -1.1985,-0.3405 -2.4825,-0.51182 -3.7575,-0.51782 -1.275,0.006 -2.5575,0.17732 -3.7545,0.51782 -2.8665002,-1.989 -4.1265002,-1.5769 -4.1265002,-1.5769 -0.8145,2.118 -0.3,3.6822598 -0.1455,4.0707598 -0.9585,1.077 -1.545,2.448 -1.545,4.128 0,5.892 3.5025,7.2126 6.8340002,7.6011 -0.429,0.384 -0.8175,1.0614 -0.9525,2.0559 -0.855,0.393 -3.0270002,1.0731 -4.3650002,-1.2774 0,0 -0.7935,-1.4777 -2.2995,-1.5857 0,0 -1.4625,-0.0194 -0.102,0.9346 0,0 0.9825,0.4725 1.665,2.25 0,0 0.8805,2.7449 5.0535002,1.8149 0.01,1.2855 0.021,2.4971 0.021,2.8631 0,0.4065 -0.276,0.8822 -1.0245,0.7397 C 4.2975148,27.940403 1.484375e-5,22.174403 1.484375e-5,15.379403 1.484375e-5,6.8849032 6.7170148,3.1359025e-6 15.000015,3.1359025e-6 Z"
     fill="#ffffff"
     id="path1-89"
     style="fill:#0559a7;fill-opacity:1" /></svg>
