<?xml version="1.0" encoding="UTF-8" standalone="no"?>
<!-- Created with Inkscape (http://www.inkscape.org/) -->

<svg
   width="25"
   height="23"
   viewBox="0 0 25 23"
   version="1.1"
   id="svg1"
   xml:space="preserve"
   xmlns="http://www.w3.org/2000/svg"
   xmlns:svg="http://www.w3.org/2000/svg"><defs
     id="defs1" /><g
     id="layer1"
     transform="translate(3304.3867,-138.88663)"><g
       style="fill:none"
       id="g10"
       transform="translate(-3304.3866,138.88662)"><path
         d="M 7.83936,0 C 5.83106,0 3.82084,0.765135 2.2925,2.28866 c -3.056667,3.04706 -3.056667,8.00264 0,11.04964 l 9.3305,9.3012 C 11.8561,22.8704 12.1714,23 12.5,23 c 0.3286,0 0.6439,-0.1296 0.877,-0.3605 l 9.3305,-9.3012 c 3.0567,-3.047 3.0567,-8.00258 0,-11.04964 C 19.894,-0.516007 15.5769,-0.435983 12.5046,1.92248 11.1,0.842108 9.53053,0 7.83936,0 Z m 0,2.4626 c 1.36467,0 2.72744,0.52172 3.78364,1.5746 0.2331,0.23093 0.5484,0.36054 0.877,0.36054 0.3286,0 0.6439,-0.12961 0.877,-0.36054 2.1124,-2.10576 5.464,-2.10576 7.5764,0 2.1125,2.10577 2.1125,5.44683 0,7.5526 l -8.4488,8.4223 -8.45804,-8.4223 c -2.11241,-2.10577 -2.11241,-5.44683 0,-7.5526 1.0562,-1.05288 2.42812,-1.5746 3.7928,-1.5746 z"
         fill="#ff3131"
         id="path1-5" /></g></g></svg>
