<?xml version="1.0" encoding="UTF-8" standalone="no"?>
<!-- Created with Inkscape (http://www.inkscape.org/) -->

<svg
   width="22.5"
   height="22.5"
   viewBox="0 0 22.5 22.5"
   version="1.1"
   id="svg1"
   xml:space="preserve"
   xmlns="http://www.w3.org/2000/svg"
   xmlns:svg="http://www.w3.org/2000/svg"><defs
     id="defs1" /><g
     style="fill:none"
     id="g7"
     transform="translate(-398.93887,-158.77393)"><path
       d="m 405.18888,148.48163 3.2106,3.2104 7.1681,-7.1681"
       stroke="#000000"
       stroke-width="2.5"
       stroke-linecap="round"
       stroke-linejoin="round"
       id="path1-0" /><path
       d="m 410.18888,157.52393 c 5.5228,0 10,-4.4772 10,-10 0,-5.52285 -4.4772,-10 -10,-10 -5.52285,0 -10,4.47715 -10,10 0,5.5228 4.47715,10 10,10 z"
       stroke="#000000"
       stroke-width="2.5"
       id="path2-9" /></g><g
     style="fill:none"
     id="g16"
     transform="translate(-398.93887,-136.27393)"><path
       d="m 405.18888,148.48163 3.2106,3.2104 7.1681,-7.1681"
       stroke="#000000"
       stroke-width="2.5"
       stroke-linecap="round"
       stroke-linejoin="round"
       id="path15"
       style="stroke:#0559a7;stroke-opacity:1" /><path
       d="m 410.18888,157.52393 c 5.5228,0 10,-4.4772 10,-10 0,-5.52285 -4.4772,-10 -10,-10 -5.52285,0 -10,4.47715 -10,10 0,5.5228 4.47715,10 10,10 z"
       stroke="#000000"
       stroke-width="2.5"
       id="path16"
       style="stroke:#0559a7;stroke-opacity:1" /></g></svg>
